<svg width="86" height="55" viewBox="0 0 86 55" fill="none" xmlns="http://www.w3.org/2000/svg">
<path opacity="0.3" d="M5.80094 8.13115L5.80093 8.13115L5.79887 8.13392C2.39832 12.7173 0.732422 19.2229 0.732422 27.5838C0.732422 36.0865 2.39742 42.6652 5.79887 47.2498C9.21854 51.8589 14.178 54.1478 20.6004 54.1478C27.0229 54.1478 31.9823 51.8589 35.402 47.2498C38.8034 42.6652 40.4684 36.0865 40.4684 27.5838C40.4684 19.2227 38.7784 12.7164 35.3291 8.13278C31.9103 3.5255 26.9759 1.23584 20.6004 1.23584C14.2244 1.23584 9.26739 3.52572 5.80094 8.13115ZM25.1048 15.6751L25.1061 15.6782C26.0742 18.0293 26.5804 21.9763 26.5804 27.5838C26.5804 33.2875 26.0742 37.3081 25.1048 39.7086C24.6249 40.897 24.0064 41.7492 23.2695 42.3045C22.5378 42.8559 21.6565 43.1398 20.6004 43.1398C19.5443 43.1398 18.663 42.8559 17.9313 42.3045C17.1944 41.7492 16.576 40.897 16.096 39.7086C15.1266 37.3081 14.6204 33.2875 14.6204 27.5838C14.6204 21.9763 15.1267 18.0293 16.0948 15.6782L16.096 15.6751C16.576 14.4866 17.1944 13.6345 17.9313 13.0791C18.663 12.5277 19.5443 12.2438 20.6004 12.2438C21.6565 12.2438 22.5378 12.5277 23.2695 13.0791C24.0064 13.6345 24.6249 14.4866 25.1048 15.6751ZM59.3843 17.5014V41.9878H49.0123H48.5123V42.4878V52.9998V53.4998H49.0123H84.0043H84.5043V52.9998V42.4878V41.9878H84.0043H73.6323V2.23984V1.73984H73.1323H63.7723H63.64L63.525 1.80527L46.317 11.5973L45.9052 11.8316L46.1171 12.2554L50.8691 21.7594L51.1055 22.2322L51.5644 21.97L59.3843 17.5014Z" fill="white" stroke="#62224C"/>
</svg>
