<svg width="84" height="55" viewBox="0 0 84 55" fill="none" xmlns="http://www.w3.org/2000/svg">
<path opacity="0.3" d="M5.80094 8.13111L5.80093 8.1311L5.79887 8.13388C2.39832 12.7172 0.732422 19.2229 0.732422 27.5838C0.732422 36.0864 2.39742 42.6652 5.79887 47.2497C9.21854 51.8588 14.178 54.1478 20.6004 54.1478C27.0229 54.1478 31.9823 51.8588 35.402 47.2497C38.8034 42.6652 40.4684 36.0864 40.4684 27.5838C40.4684 19.2226 38.7784 12.7164 35.3291 8.13274C31.9103 3.52546 26.9759 1.2358 20.6004 1.2358C14.2244 1.2358 9.26739 3.52568 5.80094 8.13111ZM25.1048 15.675L25.1061 15.6782C26.0742 18.0292 26.5804 21.9763 26.5804 27.5838C26.5804 33.2874 26.0742 37.3081 25.1048 39.7086C24.6249 40.897 24.0064 41.7491 23.2695 42.3045C22.5378 42.8559 21.6565 43.1398 20.6004 43.1398C19.5443 43.1398 18.663 42.8559 17.9313 42.3045C17.1944 41.7491 16.576 40.897 16.096 39.7086C15.1266 37.3081 14.6204 33.2874 14.6204 27.5838C14.6204 21.9763 15.1267 18.0292 16.0948 15.6782L16.096 15.675C16.576 14.4866 17.1944 13.6345 17.9313 13.0791C18.663 12.5277 19.5443 12.2438 20.6004 12.2438C21.6565 12.2438 22.5378 12.5277 23.2695 13.0791C24.0064 13.6345 24.6249 14.4866 25.1048 15.675ZM82.7043 42.4878V41.9878H82.2043H63.8818L73.2736 32.3977L73.2785 32.3925C76.1285 29.3976 78.1586 26.667 79.3422 24.202C80.5776 21.681 81.1923 18.9176 81.1923 15.9198C81.1923 12.9489 80.4231 10.3277 78.872 8.07615C77.3224 5.82659 75.1055 4.11498 72.2483 2.93177C69.4377 1.70001 66.1764 1.0918 62.4763 1.0918C59.0662 1.0918 55.7052 1.60332 52.395 2.62538C49.135 3.59874 46.4565 4.92036 44.3777 6.60317L44.0812 6.8432L44.2344 7.19257L48.3384 16.5526L48.5729 17.0875L49.0653 16.7733C51.2931 15.3513 53.4902 14.2656 55.6566 13.512L55.6566 13.5121L55.6624 13.51C57.8769 12.709 59.9067 12.3158 61.7563 12.3158C63.69 12.3158 65.0472 12.7253 65.9159 13.458C66.7684 14.177 67.2323 15.2773 67.2323 16.8558C67.2323 19.4494 65.7524 22.3782 62.6194 25.6537C62.6193 25.6539 62.6191 25.654 62.619 25.6542L46.06 42.8611L45.9203 43.0063V43.2078V52.9998V53.4998H46.4203H82.2043H82.7043V52.9998V42.4878Z" fill="white" stroke="#62224C"/>
</svg>
