<svg width="83" height="55" viewBox="0 0 83 55" fill="none" xmlns="http://www.w3.org/2000/svg">
<path opacity="0.3" d="M5.80094 8.13111L5.80093 8.1311L5.79887 8.13388C2.39832 12.7172 0.732422 19.2229 0.732422 27.5838C0.732422 36.0864 2.39742 42.6652 5.79887 47.2497C9.21854 51.8588 14.178 54.1478 20.6004 54.1478C27.0229 54.1478 31.9823 51.8588 35.402 47.2497C38.8034 42.6652 40.4684 36.0864 40.4684 27.5838C40.4684 19.2226 38.7784 12.7164 35.3291 8.13274C31.9103 3.52546 26.9759 1.2358 20.6004 1.2358C14.2244 1.2358 9.26739 3.52568 5.80094 8.13111ZM25.1048 15.675L25.1061 15.6782C26.0742 18.0292 26.5804 21.9763 26.5804 27.5838C26.5804 33.2874 26.0742 37.3081 25.1048 39.7086C24.6249 40.897 24.0064 41.7491 23.2695 42.3045C22.5378 42.8559 21.6565 43.1398 20.6004 43.1398C19.5443 43.1398 18.663 42.8559 17.9313 42.3045C17.1944 41.7491 16.576 40.897 16.096 39.7086C15.1266 37.3081 14.6204 33.2874 14.6204 27.5838C14.6204 21.9763 15.1267 18.0292 16.0948 15.6782L16.096 15.675C16.576 14.4866 17.1944 13.6345 17.9313 13.0791C18.663 12.5277 19.5443 12.2438 20.6004 12.2438C21.6565 12.2438 22.5378 12.5277 23.2695 13.0791C24.0064 13.6345 24.6249 14.4866 25.1048 15.675ZM79.9415 31.0294C78.5323 29.1089 76.6364 27.704 74.2732 26.8086C76.2575 25.8686 77.8432 24.5435 79.0149 22.8292C80.4718 20.7679 81.1923 18.3373 81.1923 15.5598C81.1923 12.6811 80.4211 10.1307 78.869 7.92782C77.3197 5.72872 75.1283 4.04237 72.3197 2.85958C69.5572 1.67594 66.3441 1.0918 62.6923 1.0918C59.235 1.0918 55.8267 1.6031 52.469 2.62478C49.1615 3.59781 46.4578 4.91931 44.3777 6.60317L44.0812 6.8432L44.2344 7.19257L48.3384 16.5526L48.5829 17.1103L49.0824 16.7619C51.1101 15.3472 53.2283 14.2652 55.4374 13.5131L55.4375 13.5132L55.4464 13.51C57.6579 12.7101 59.7361 12.3158 61.6843 12.3158C63.6713 12.3158 65.1174 12.8006 66.0992 13.697L66.1075 13.7047L66.1162 13.7119C67.1328 14.5591 67.6643 15.7739 67.6643 17.4318C67.6643 18.9769 67.1236 20.0242 66.0948 20.6827C65.0186 21.3714 63.2183 21.7558 60.6043 21.7558H54.0523H53.5523V22.2558V32.4798V32.9798H54.0523H61.9003C64.6117 32.9798 66.452 33.3889 67.5231 34.1173C68.5472 34.8136 69.1043 35.9757 69.1043 37.7358C69.1043 39.6471 68.5184 40.9034 67.4477 41.6447L67.4476 41.6446L67.4401 41.65C66.3745 42.4173 64.4713 42.8518 61.6123 42.8518C57.2181 42.8518 52.8013 41.3807 48.3547 38.4005L47.8583 38.0678L47.6184 38.615L43.5144 47.975L43.3631 48.3201L43.6531 48.5607C45.6869 50.2472 48.3924 51.5933 51.7467 52.6141L51.7467 52.6142L51.7531 52.616C55.1123 53.5897 58.6153 54.0758 62.2603 54.0758C68.4201 54.0758 73.3362 52.7911 76.9541 50.1644L76.955 50.1637C80.6383 47.4759 82.4883 43.7966 82.4883 39.1758C82.4883 36.0118 81.6462 33.2871 79.9415 31.0294Z" fill="white" stroke="#62224C"/>
</svg>
