<svg width="21" height="22" viewBox="0 0 21 22" fill="none" xmlns="http://www.w3.org/2000/svg">
<path d="M19.0312 5.75H1.96875C1.60631 5.75 1.3125 6.04381 1.3125 6.40625V15.5938C1.3125 15.9562 1.60631 16.25 1.96875 16.25H19.0312C19.3937 16.25 19.6875 15.9562 19.6875 15.5938V6.40625C19.6875 6.04381 19.3937 5.75 19.0312 5.75Z" stroke="#3BAF2A" stroke-width="2" stroke-linecap="round" stroke-linejoin="round"/>
<path d="M10.5 13.625C11.9497 13.625 13.125 12.4497 13.125 11C13.125 9.55025 11.9497 8.375 10.5 8.375C9.05025 8.375 7.875 9.55025 7.875 11C7.875 12.4497 9.05025 13.625 10.5 13.625Z" stroke="#3BAF2A" stroke-width="2" stroke-linecap="round" stroke-linejoin="round"/>
<path d="M14.4375 5.75L19.6875 10.3438" stroke="#3BAF2A" stroke-linecap="round" stroke-linejoin="round"/>
<path d="M14.4375 16.25L19.6875 11.6562" stroke="#3BAF2A" stroke-linecap="round" stroke-linejoin="round"/>
<path d="M6.5625 5.75L1.3125 10.3438" stroke="#3BAF2A" stroke-linecap="round" stroke-linejoin="round"/>
<path d="M6.5625 16.25L1.3125 11.6562" stroke="#3BAF2A" stroke-linecap="round" stroke-linejoin="round"/>
</svg>
