<svg width="21" height="22" viewBox="0 0 21 22" fill="none" xmlns="http://www.w3.org/2000/svg">
<path d="M17.7194 6.40625H3.28186C2.91942 6.40625 2.62561 6.70006 2.62561 7.0625V17.5625C2.62561 17.9249 2.91942 18.2188 3.28186 18.2188H17.7194C18.0818 18.2188 18.3756 17.9249 18.3756 17.5625V7.0625C18.3756 6.70006 18.0818 6.40625 17.7194 6.40625Z" stroke="#3BAF2A" stroke-width="2" stroke-linecap="round" stroke-linejoin="round"/>
<path d="M13.7812 6.40625V5.09375C13.7812 4.74565 13.643 4.41181 13.3968 4.16567C13.1507 3.91953 12.8168 3.78125 12.4688 3.78125H8.53125C8.18315 3.78125 7.84931 3.91953 7.60317 4.16567C7.35703 4.41181 7.21875 4.74565 7.21875 5.09375V6.40625" stroke="#3BAF2A" stroke-width="2" stroke-linecap="round" stroke-linejoin="round"/>
<path d="M18.3757 10.8613C15.9823 12.2461 13.2652 12.9731 10.5001 12.9688C7.73541 12.9731 5.01876 12.2463 2.62561 10.862" stroke="#3BAF2A" stroke-width="2" stroke-linecap="round" stroke-linejoin="round"/>
<path d="M9.51562 10.3438H11.4844" stroke="#3BAF2A" stroke-width="2" stroke-linecap="round" stroke-linejoin="round"/>
</svg>
