<svg width="67" height="67" viewBox="0 0 67 67" fill="none" xmlns="http://www.w3.org/2000/svg">
<circle cx="33.5" cy="33.5" r="28.5" fill="#3BAF2A"/>
<circle cx="33.5" cy="33.5" r="33" stroke="#62DA51"/>
<path d="M33.5007 41.21C32.1987 41.21 31.0647 40.923 30.0987 40.349C29.1467 39.761 28.4957 38.942 28.1457 37.892L30.3297 36.863C30.5257 37.633 30.8757 38.228 31.3797 38.648C31.8837 39.068 32.6187 39.278 33.5847 39.278C34.3967 39.278 35.0267 39.068 35.4747 38.648C35.9227 38.214 36.1467 37.647 36.1467 36.947C36.1467 36.261 35.9437 35.757 35.5377 35.435C35.1457 35.099 34.5157 34.931 33.6477 34.931C33.3257 34.931 32.9687 34.952 32.5767 34.994V33.104C32.7027 33.118 32.8217 33.132 32.9337 33.146C33.0597 33.146 33.1787 33.146 33.2907 33.146C34.2007 33.146 34.8517 32.964 35.2437 32.6C35.6357 32.236 35.8317 31.669 35.8317 30.899C35.8317 30.241 35.6287 29.737 35.2227 29.387C34.8167 29.037 34.2497 28.862 33.5217 28.862C32.7517 28.862 32.1497 29.044 31.7157 29.408C31.2817 29.772 30.9597 30.283 30.7497 30.941L28.6917 30.08C28.9857 29.128 29.5737 28.365 30.4557 27.791C31.3377 27.203 32.3947 26.909 33.6267 26.909C34.6207 26.909 35.4467 27.077 36.1047 27.413C36.7767 27.735 37.2737 28.176 37.5957 28.736C37.9317 29.282 38.0997 29.898 38.0997 30.584C38.0997 31.284 37.9667 31.879 37.7007 32.369C37.4347 32.845 37.0987 33.216 36.6927 33.482C36.3007 33.748 35.9017 33.916 35.4957 33.986V34.028C36.0277 34.042 36.5107 34.175 36.9447 34.427C37.3927 34.679 37.7497 35.029 38.0157 35.477C38.2817 35.925 38.4147 36.436 38.4147 37.01C38.4147 37.85 38.2047 38.585 37.7847 39.215C37.3647 39.845 36.7837 40.335 36.0417 40.685C35.3137 41.035 34.4667 41.21 33.5007 41.21Z" fill="white"/>
</svg>
