<svg width="626" height="473" viewBox="0 0 626 473" fill="none" xmlns="http://www.w3.org/2000/svg">
<g opacity="0.04">
<path d="M286.145 191.223C246.208 198.877 206.131 165.475 196.808 116.827C187.484 68.1777 212.372 22.3255 252.309 14.6716C292.245 7.01777 332.322 40.4194 341.646 89.0683C350.97 137.717 326.032 183.579 286.145 191.223ZM256.178 34.8589C223.103 41.1977 206.515 73.212 214.243 113.537C221.972 153.861 249.27 177.465 282.295 171.136C315.321 164.806 331.958 132.783 324.23 92.4578C316.501 52.1331 289.203 28.5296 256.178 34.8589Z" fill="#171717"/>
<path d="M505.617 224.97C480.49 229.785 455.211 208.172 449.193 176.769C443.174 145.367 458.72 115.929 483.798 111.123C508.925 106.308 534.204 127.921 540.222 159.323C546.241 190.726 530.694 220.163 505.617 224.97ZM486.855 127.074C466.566 130.962 458.014 148.827 462.867 174.149C467.72 199.47 482.271 212.908 502.56 209.019C522.849 205.131 531.401 187.265 526.548 161.944C521.695 136.623 507.095 123.195 486.855 127.074Z" fill="#171717"/>
<path d="M356.983 407.037C366.311 407.11 375.56 404.097 383.943 399.235C392.306 394.273 399.756 387.212 405.941 378.896C407.542 376.832 408.612 374.405 409.8 372.058L411.528 368.523L413.098 364.967C415.267 360.262 417.012 355.483 418.876 350.785C422.484 341.309 425.807 331.939 429.482 322.811C433.099 313.643 437.157 304.908 441.578 296.464C444.038 292.479 446.185 288.191 448.959 284.507C450.292 282.65 451.547 280.653 452.939 278.836L457.31 273.605C469.14 259.763 484.766 251.032 501.673 247.12L504.843 246.306L508.12 245.781L514.684 244.781C519.067 244.148 523.495 244.023 527.876 243.648L534.443 243.733L537.727 243.776L540.969 244.136C543.117 244.396 545.345 244.538 547.463 244.907L553.824 246.323C562.202 248.645 570.236 252.376 577.183 257.918C584.131 263.459 590.032 270.751 594.408 279.163C598.833 287.565 602.059 296.92 604.366 306.555L605.958 313.794L606.44 317.112L606.657 320.378C606.654 322.498 606.552 324.636 606.115 326.631C605.892 327.604 605.629 328.637 605.298 329.579C605.026 330.561 604.754 331.543 604.373 332.495C602.124 340.522 595.878 347.455 588.706 352.757C585.08 355.467 581.17 357.767 577.056 359.796C573 361.865 568.738 363.663 564.351 365.073C573.584 364.647 582.836 362.719 591.676 358.906C596.125 357.02 600.401 354.495 604.366 351.151C608.341 347.857 612.035 343.635 614.661 338.378C615.33 337.061 615.891 335.713 616.265 334.195C616.757 332.757 616.924 331.226 617.249 329.717C617.574 328.208 617.593 326.705 617.81 325.165C617.928 323.644 617.898 322.151 617.957 320.59C617.927 319.097 617.788 317.573 617.659 316.099L617.016 311.675L615.28 303.688C612.693 293.125 609.149 282.642 603.993 272.83C598.886 263.009 591.821 254.182 583.421 247.472C575.021 240.762 565.473 236.339 555.806 233.696L548.538 232.092C546.105 231.68 543.719 231.517 541.256 231.214L537.649 230.82L534.05 230.735L526.872 230.663C522.126 231.005 517.352 231.196 512.673 231.886L505.665 232.971L502.191 233.533L498.674 234.414C479.99 238.666 462.02 248.777 448.858 264.218L443.98 270.011C442.419 272.015 441.035 274.141 439.592 276.226C436.53 280.275 434.234 284.849 431.584 289.181C426.814 298.208 422.546 307.449 418.829 316.895C415.053 326.3 411.661 335.839 408.162 345.087C404.614 354.346 400.959 363.314 396.188 370.998C388.343 387.746 374.737 401.671 356.983 407.037Z" fill="#171717"/>
<path d="M34.7223 256.203C28.704 224.8 44.2503 195.363 69.3279 190.557C94.4549 185.741 119.734 207.355 125.752 238.757C131.77 270.159 116.224 299.597 91.1466 304.403C66.0196 309.219 40.7406 287.605 34.7223 256.203ZM48.3966 253.582C53.2589 278.953 67.8005 292.341 88.0897 288.453C108.379 284.564 116.931 266.699 112.078 241.378C107.225 216.056 92.674 202.619 72.3848 206.507C52.0956 210.396 43.5342 228.211 48.3966 253.582Z" fill="#171717"/>
<path d="M296.561 418.615C287.92 422.132 278.213 422.752 268.626 421.333C259.021 419.815 249.489 416.01 240.667 410.569C238.417 409.243 236.525 407.384 234.554 405.643L231.641 402.997L228.867 400.273C225.113 396.704 221.724 392.909 218.256 389.233C211.399 381.762 204.848 374.284 198.058 367.162C191.308 359.981 184.308 353.365 177.079 347.154C173.319 344.36 169.74 341.171 165.8 338.773C163.875 337.54 161.97 336.148 160.005 334.975L154.01 331.731C137.9 323.243 120.154 320.908 102.999 323.524L99.7516 323.94L96.5126 324.664L90.0441 326.162C85.7382 327.194 81.5771 328.715 77.3683 329.987L71.2979 332.494L68.2627 333.747L65.3835 335.281C63.4837 336.317 61.4661 337.272 59.6348 338.398L54.2475 342.066C47.3218 347.321 41.237 353.758 36.8305 361.475C32.424 369.193 29.6369 378.15 28.6812 387.583C27.676 397.026 28.1375 406.911 29.556 416.716L30.7532 424.031L31.5318 427.292L32.5381 430.407C33.3247 432.375 34.21 434.324 35.3533 436.017C35.9202 436.838 36.546 437.7 37.2021 438.453C37.8183 439.265 38.4345 440.077 39.14 440.82C44.1973 447.447 52.5637 451.58 61.1882 453.854C65.5594 455.032 70.042 455.723 74.6155 456.087C79.1491 456.51 83.7735 456.606 88.3708 456.293C79.6347 459.311 70.3253 460.94 60.7023 460.665C55.8709 460.558 50.9647 459.793 46.0441 458.152C41.1331 456.561 36.1394 454.004 31.7556 450.09C30.6473 449.114 29.6282 448.069 28.7189 446.796C27.7301 445.642 27.0088 444.282 26.1489 443C25.289 441.718 24.7158 440.329 23.9451 438.978C23.2732 437.608 22.7493 436.21 22.1172 434.781C21.5933 433.383 21.1586 431.916 20.7335 430.499L19.4963 426.447L18.1558 418.384C16.6545 407.613 16.072 396.562 17.2349 385.539C18.3484 374.526 21.6498 363.713 26.9736 354.373C32.2974 345.032 39.5336 337.393 47.539 331.363L53.6986 327.185C55.807 325.902 57.9632 324.869 60.1401 323.677L63.3457 321.977L66.658 320.567L73.3017 317.847C77.8369 316.409 82.3435 314.822 86.9457 313.734L93.8584 312.15L97.2949 311.388L100.887 310.907C119.82 307.95 140.255 310.7 158.194 320.181L164.867 323.759C167.059 325.045 169.13 326.508 171.242 327.912C175.584 330.542 179.409 333.943 183.473 336.988C191.242 343.613 198.624 350.621 205.57 358.023C212.556 365.366 219.234 372.974 225.905 380.274C232.624 387.564 239.336 394.546 246.61 399.922C260.29 412.286 278.081 420.193 296.561 418.615Z" fill="#171717"/>
<path d="M570.763 380.638C543.453 376.467 516.505 366.438 490.815 352.294C478.45 344.121 466.665 334.701 455.596 324.214C444.329 314.022 434.297 301.734 424.896 289.532C407.222 265.944 387.786 243.573 364.898 229.097C362.08 227.209 359.091 225.766 356.212 224.096C353.263 222.594 350.263 221.36 347.283 219.968C344.223 218.952 341.223 217.719 338.102 216.921C335 216.224 331.939 215.209 328.756 214.889C316.225 212.794 303.401 213.443 290.754 215.815C278.077 218.297 265.971 222.425 255.102 229.004C252.313 230.469 249.854 232.594 247.17 234.348C244.624 236.283 242.243 238.548 239.765 240.573C237.512 242.969 235.181 245.224 232.996 247.71C230.938 250.327 228.694 252.772 226.774 255.569C210.86 277.48 201.082 305.503 193.372 333.903C189.198 348.708 184.37 363.844 177.669 377.478C171.213 391.325 163.804 404.475 155.269 416.549C136.629 439.19 115.297 458.471 91.5331 472.534C111.517 452.633 128.984 430.01 142.972 405.264C144.678 402.146 146.883 399.501 148.756 396.455C150.648 393.509 152.422 390.482 154.305 387.486C157.607 381.22 161.205 375.156 164.046 368.617C165.467 365.348 167.113 362.19 168.416 358.84L172.225 348.808C173.587 345.498 174.447 341.974 175.533 338.562C176.551 335.06 177.616 331.807 178.636 328.046C186.688 298.494 196.802 268.754 214.716 243.927C216.876 240.774 219.408 237.964 221.763 235.032C224.236 232.181 226.955 229.541 229.555 226.821C232.42 224.411 235.148 221.822 238.1 219.602C241.131 217.523 244.045 215.104 247.251 213.404C259.812 205.778 273.617 201.168 287.39 198.529C301.172 195.939 315.703 195.118 330.185 197.51C333.841 197.894 337.394 199.074 340.978 199.886C344.542 200.856 348.034 202.254 351.587 203.433C355.009 205 358.51 206.447 361.862 208.182C365.144 210.085 368.536 211.76 371.699 213.842C397.522 230.286 417.916 254.18 436.323 278.66C438.661 281.778 440.854 284.406 443.094 287.284C445.365 290.053 447.476 293.059 449.956 295.581L457.204 303.494C459.653 306.125 462.301 308.459 464.879 310.962C469.897 316.047 475.521 320.292 480.906 324.892L489.378 331.175C492.185 333.273 495.262 334.905 497.999 337.171C520.315 354.805 544.868 369.426 570.763 380.638Z" fill="#171717"/>
</g>
</svg>
