<svg width="22" height="22" viewBox="0 0 22 22" fill="none" xmlns="http://www.w3.org/2000/svg">
<g clip-path="url(#clip0)">
<path d="M19.5312 5.75H2.46875C2.10631 5.75 1.8125 6.04381 1.8125 6.40625V15.5938C1.8125 15.9562 2.10631 16.25 2.46875 16.25H19.5312C19.8937 16.25 20.1875 15.9562 20.1875 15.5938V6.40625C20.1875 6.04381 19.8937 5.75 19.5312 5.75Z" stroke="#3BAF2A" stroke-width="2" stroke-linecap="round" stroke-linejoin="round"/>
<path d="M11 13.625C12.4497 13.625 13.625 12.4497 13.625 11C13.625 9.55025 12.4497 8.375 11 8.375C9.55025 8.375 8.375 9.55025 8.375 11C8.375 12.4497 9.55025 13.625 11 13.625Z" stroke="#3BAF2A" stroke-width="2" stroke-linecap="round" stroke-linejoin="round"/>
<path d="M14.9375 5.75L20.1875 10.3438" stroke="#3BAF2A" stroke-linecap="round" stroke-linejoin="round"/>
<path d="M14.9375 16.25L20.1875 11.6562" stroke="#3BAF2A" stroke-linecap="round" stroke-linejoin="round"/>
<path d="M7.0625 5.75L1.8125 10.3438" stroke="#3BAF2A" stroke-linecap="round" stroke-linejoin="round"/>
<path d="M7.0625 16.25L1.8125 11.6562" stroke="#3BAF2A" stroke-linecap="round" stroke-linejoin="round"/>
</g>
<defs>
<clipPath id="clip0">
<rect width="21" height="21" fill="white" transform="translate(0.5 0.5)"/>
</clipPath>
</defs>
</svg>
