<svg width="21" height="21" viewBox="0 0 21 21" fill="none" xmlns="http://www.w3.org/2000/svg">
<g clip-path="url(#clip0)">
<path d="M10.5 20.125C10.5 20.125 18.375 14.875 18.375 8.75C18.375 6.66142 17.5453 4.65838 16.0685 3.18153C14.5916 1.70469 12.5886 0.875 10.5 0.875C8.41142 0.875 6.40838 1.70469 4.93153 3.18153C3.45469 4.65838 2.625 6.66142 2.625 8.75C2.625 12.5049 5.58454 15.9309 7.875 18.0201M10.5 11.375C11.9497 11.375 13.125 10.1997 13.125 8.75C13.125 7.30025 11.9497 6.125 10.5 6.125C9.05025 6.125 7.875 7.30025 7.875 8.75C7.875 9.2867 8.03607 9.78578 8.3125 10.2015" stroke="#3BAF2A" stroke-width="2" stroke-linecap="round" stroke-linejoin="round"/>
</g>
<defs>
<clipPath id="clip0">
<rect width="21" height="21" fill="white"/>
</clipPath>
</defs>
</svg>
