<svg width="18" height="18" viewBox="0 0 18 18" fill="none" xmlns="http://www.w3.org/2000/svg">
<path fill-rule="evenodd" clip-rule="evenodd" d="M4.02467 5.97683H0.291442V18H4.02467V5.97683ZM4.32999 2.16834C4.32999 0.972973 3.35852 0 2.165 0C0.964534 0 0 0.972973 0 2.16834C0 3.36371 0.964534 4.33668 2.165 4.33668C3.35852 4.33668 4.32999 3.36371 4.32999 2.16834ZM9.94372 5.97683H6.37702V18H10.1033V12.051C10.1033 10.4873 10.3948 8.96525 12.3377 8.96525C14.2529 8.96525 14.2737 10.7583 14.2737 12.1552V18H18V11.4116C18 8.17297 17.2992 5.68494 13.5243 5.68494C11.7062 5.68494 10.4919 6.67876 9.99229 7.62394H9.94372V5.97683Z" fill="white"/>
</svg>
