<svg width="269" height="56" viewBox="0 0 269 56" fill="none" xmlns="http://www.w3.org/2000/svg">
<g clip-path="url(#clip0)">
<path d="M102.002 28.8031V6.34351H93.4639V2.37207H115.331V6.34351H106.794V28.8031H102.002Z" fill="#48AC35"/>
<path d="M144.535 17.4784C145.367 18.6035 145.777 19.9792 145.777 21.6058C145.777 23.8558 144.978 25.6179 143.381 26.892C141.783 28.1661 139.588 28.8031 136.789 28.8031H124.909V2.37207H136.42C139.145 2.37207 141.28 2.98202 142.823 4.18836C144.367 5.40148 145.146 7.09578 145.146 9.27126C145.146 10.6741 144.783 11.8805 144.052 12.9106C143.32 13.934 142.313 14.6862 141.025 15.1606C142.535 15.5808 143.703 16.3534 144.535 17.4784ZM129.587 13.507H135.642C138.937 13.507 140.582 12.2736 140.582 9.7931C140.582 8.5461 140.172 7.61762 139.353 7.02123C138.534 6.42484 137.299 6.11986 135.642 6.11986H129.587V13.507ZM140.058 24.1133C140.85 23.4898 141.246 22.5139 141.246 21.1856C141.246 19.864 140.843 18.8745 140.038 18.2239C139.233 17.5733 137.977 17.248 136.273 17.248H129.587V25.0486H136.273C138.004 25.0486 139.266 24.7368 140.058 24.1133Z" fill="#48AC35"/>
<path d="M156.583 28.8031V2.37207H174.108V6.19441H161.261V13.4663H173.37V17.2548H161.261V24.9808H174.108V28.8031H156.583Z" fill="#48AC35"/>
<path d="M187.626 28.3152C185.867 27.7662 184.384 26.9869 183.169 25.9906L184.766 22.4665C186.028 23.4424 187.357 24.154 188.76 24.6013C190.156 25.0486 191.673 25.279 193.304 25.279C195.11 25.279 196.506 24.9605 197.479 24.3234C198.459 23.6864 198.949 22.7918 198.949 21.6464C198.949 20.6502 198.499 19.8843 197.593 19.3557C196.687 18.8339 195.183 18.3324 193.083 17.858C190.901 17.3836 189.136 16.8346 187.773 16.2043C186.411 15.5808 185.384 14.7811 184.693 13.8052C184.001 12.8293 183.652 11.5958 183.652 10.0913C183.652 8.53931 184.075 7.15677 184.914 5.93009C185.753 4.70342 186.941 3.74783 188.478 3.06334C190.015 2.37206 191.787 2.0332 193.787 2.0332C195.62 2.0332 197.365 2.31107 199.023 2.87358C200.68 3.43608 202.043 4.20191 203.11 5.17782L201.513 8.70197C199.184 6.82468 196.613 5.88943 193.787 5.88943C192.103 5.88943 190.774 6.23507 189.794 6.91956C188.814 7.60406 188.324 8.56642 188.324 9.78632C188.324 10.8097 188.76 11.5958 189.626 12.1516C190.492 12.7005 191.962 13.2156 194.042 13.69C196.244 14.1915 198.036 14.7472 199.405 15.3572C200.781 15.9671 201.828 16.7533 202.56 17.7021C203.291 18.6509 203.654 19.8505 203.654 21.3008C203.654 22.8731 203.238 24.2556 202.412 25.4417C201.587 26.6277 200.385 27.5426 198.815 28.1796C197.244 28.8167 195.391 29.1352 193.264 29.1352C191.264 29.1352 189.384 28.8641 187.626 28.3152Z" fill="#48AC35"/>
<path d="M220.004 28.8031V6.34351H211.467V2.37207H233.334V6.34351H224.79V28.8031H220.004Z" fill="#48AC35"/>
<path d="M96.5589 55.105C95.834 54.6848 95.2769 54.0884 94.8876 53.3091C94.4984 52.5365 94.3037 51.6283 94.3037 50.5982C94.3037 49.568 94.4984 48.6667 94.8876 47.8941C95.2769 47.1215 95.834 46.5251 96.5589 46.1049C97.2838 45.6847 98.1362 45.4746 99.1095 45.4746C99.774 45.4746 100.405 45.5763 100.989 45.7864C101.579 45.9965 102.076 46.2879 102.479 46.6674L101.875 48.0025C101.425 47.6433 100.982 47.379 100.539 47.2163C100.096 47.0537 99.633 46.9656 99.1363 46.9656C98.1832 46.9656 97.4449 47.2773 96.9214 47.9008C96.4046 48.5244 96.1428 49.4257 96.1428 50.5982C96.1428 51.7774 96.4046 52.6856 96.9214 53.3091C97.4382 53.9326 98.1765 54.2443 99.1363 54.2443C99.633 54.2443 100.103 54.163 100.539 53.9936C100.982 53.8309 101.425 53.5666 101.875 53.2074L102.479 54.5425C102.076 54.922 101.579 55.2134 100.989 55.4235C100.398 55.6336 99.774 55.7353 99.1095 55.7353C98.1362 55.7421 97.2838 55.532 96.5589 55.105Z" fill="white"/>
<path d="M108.251 55.1186C107.546 54.7052 106.996 54.1088 106.613 53.3294C106.231 52.5568 106.036 51.6487 106.036 50.605C106.036 49.5681 106.224 48.66 106.607 47.8874C106.989 47.1148 107.533 46.5251 108.244 46.1049C108.956 45.6915 109.795 45.4814 110.761 45.4814C111.728 45.4814 112.56 45.6915 113.272 46.1049C113.976 46.5184 114.52 47.1148 114.903 47.8874C115.285 48.66 115.473 49.5613 115.473 50.605C115.473 51.6487 115.279 52.5501 114.896 53.3294C114.513 54.102 113.963 54.6984 113.258 55.1186C112.553 55.532 111.721 55.7421 110.761 55.7421C109.795 55.7421 108.956 55.532 108.251 55.1186ZM112.882 53.3294C113.392 52.6992 113.648 51.791 113.648 50.605C113.648 49.4258 113.392 48.5176 112.882 47.8874C112.372 47.2571 111.661 46.9453 110.755 46.9453C109.835 46.9453 109.124 47.2571 108.614 47.8874C108.103 48.5176 107.848 49.419 107.848 50.605C107.848 51.7842 108.103 52.6924 108.614 53.3294C109.124 53.9665 109.835 54.2783 110.755 54.2783C111.667 54.2783 112.372 53.9597 112.882 53.3294Z" fill="white"/>
<path d="M126.333 45.6104H128.031V55.6135H126.669L121.36 48.633V55.6135H119.675V45.6104H121.024L126.333 52.5773V45.6104Z" fill="white"/>
<path d="M139.22 45.6104H140.918V55.6135H139.555L134.246 48.633V55.6135H132.562V45.6104H133.911L139.22 52.5773V45.6104Z" fill="white"/>
<path d="M145.442 55.6135V45.6104H152.074V47.0539H147.214V49.8054H151.792V51.2354H147.214V54.1564H152.074V55.5999H145.442V55.6135Z" fill="white"/>
<path d="M158.021 55.105C157.296 54.6848 156.739 54.0884 156.35 53.3091C155.96 52.5365 155.766 51.6283 155.766 50.5982C155.766 49.568 155.96 48.6667 156.35 47.8941C156.739 47.1215 157.296 46.5251 158.021 46.1049C158.746 45.6847 159.598 45.4746 160.571 45.4746C161.236 45.4746 161.867 45.5763 162.451 45.7864C163.041 45.9965 163.538 46.2879 163.941 46.6674L163.337 48.0025C162.887 47.6433 162.444 47.379 162.001 47.2163C161.558 47.0537 161.095 46.9656 160.598 46.9656C159.645 46.9656 158.907 47.2773 158.383 47.9008C157.866 48.5244 157.605 49.4257 157.605 50.5982C157.605 51.7774 157.866 52.6856 158.383 53.3091C158.9 53.9326 159.638 54.2443 160.598 54.2443C161.095 54.2443 161.565 54.163 162.001 53.9936C162.444 53.8309 162.887 53.5666 163.337 53.2074L163.941 54.5425C163.538 54.922 163.041 55.2134 162.451 55.4235C161.86 55.6336 161.236 55.7353 160.571 55.7353C159.598 55.7421 158.746 55.532 158.021 55.105Z" fill="white"/>
<path d="M170.183 55.6135V47.1149H166.954V45.6104H175.23V47.1149H172.002V55.6135H170.183Z" fill="white"/>
<path d="M188.513 55.8713V47.3727H185.284V45.8682H193.56V47.3727H190.332V55.8713H188.513Z" fill="white"/>
<path d="M204.037 45.875H205.809V55.8781H204.037V51.5407H198.963V55.8781H197.178V45.875H198.963V50.0565H204.037V45.875Z" fill="white"/>
<path d="M210.333 55.8714V45.875H216.964V47.3185H212.105V50.0701H216.683V51.5069H212.105V54.4278H216.964V55.8714H210.333Z" fill="white"/>
<path d="M234.617 51.5882C234.932 52.0151 235.087 52.537 235.087 53.1469C235.087 54.0009 234.785 54.665 234.181 55.1462C233.576 55.6274 232.744 55.8714 231.69 55.8714H227.193V45.875H231.549C232.583 45.875 233.389 46.1054 233.972 46.5663C234.556 47.0271 234.852 47.6642 234.852 48.491C234.852 49.0196 234.711 49.4805 234.436 49.8668C234.16 50.2531 233.778 50.5377 233.288 50.7207C233.858 50.8698 234.301 51.1612 234.617 51.5882ZM228.959 50.0836H231.247C232.496 50.0836 233.113 49.616 233.113 48.6808C233.113 48.2064 232.959 47.8607 232.65 47.6303C232.341 47.4066 231.872 47.2914 231.247 47.2914H228.959V50.0836ZM232.919 54.1025C233.221 53.8653 233.368 53.4994 233.368 52.9978C233.368 52.4963 233.214 52.1236 232.912 51.8796C232.61 51.6356 232.133 51.5136 231.489 51.5136H228.959V54.4617H231.489C232.147 54.4549 232.623 54.333 232.919 54.1025Z" fill="white"/>
<path d="M239.175 55.8714V45.875H245.806V47.3185H240.947V50.0701H245.524V51.5069H240.947V54.4278H245.806V55.8714H239.175Z" fill="white"/>
<path d="M250.914 55.6882C250.25 55.4781 249.686 55.1867 249.229 54.8071L249.834 53.472C250.31 53.838 250.814 54.1091 251.344 54.2785C251.874 54.448 252.445 54.5361 253.062 54.5361C253.747 54.5361 254.27 54.4141 254.639 54.1769C255.009 53.9329 255.196 53.6008 255.196 53.1603C255.196 52.7808 255.029 52.4961 254.686 52.2928C254.344 52.0963 253.773 51.9065 252.981 51.7235C252.156 51.5405 251.485 51.3372 250.975 51.1C250.458 50.8628 250.068 50.5578 249.807 50.1919C249.545 49.8259 249.411 49.3515 249.411 48.789C249.411 48.1994 249.572 47.6775 249.887 47.2167C250.203 46.7558 250.652 46.3899 251.236 46.1323C251.814 45.8748 252.485 45.7393 253.243 45.7393C253.935 45.7393 254.599 45.8477 255.223 46.0578C255.854 46.2679 256.364 46.5593 256.767 46.932L256.163 48.2672C255.284 47.5555 254.31 47.2031 253.243 47.2031C252.606 47.2031 252.102 47.3319 251.733 47.5962C251.364 47.8605 251.176 48.2197 251.176 48.6806C251.176 49.0669 251.337 49.3651 251.666 49.5752C251.995 49.7852 252.552 49.975 253.337 50.158C254.17 50.3478 254.847 50.5578 255.364 50.7883C255.881 51.0187 256.284 51.3169 256.559 51.6761C256.834 52.0353 256.975 52.4893 256.975 53.0383C256.975 53.6347 256.821 54.1565 256.505 54.6038C256.19 55.0511 255.74 55.3968 255.143 55.6407C254.545 55.8847 253.847 55.9999 253.042 55.9999C252.297 55.9999 251.579 55.8983 250.914 55.6882Z" fill="white"/>
<path d="M263.17 55.8713V47.3727H259.941V45.8682H268.217V47.3727H264.989V55.8713H263.17Z" fill="white"/>
<path d="M40.8826 24.0048C35.4526 24.0048 31.0361 18.617 31.0361 12.0024C31.0361 5.38787 35.4526 0 40.8826 0C46.3126 0 50.7291 5.38787 50.7291 12.0024C50.7291 18.617 46.3059 24.0048 40.8826 24.0048ZM40.8826 2.74477C36.3856 2.74477 33.4055 6.52644 33.4055 12.0092C33.4055 17.492 36.3923 21.2736 40.8826 21.2736C45.3729 21.2736 48.3597 17.492 48.3597 12.0092C48.3597 6.52644 45.3729 2.74477 40.8826 2.74477Z" fill="#48AC35"/>
<path d="M68.8183 33.9469C65.4019 33.9469 62.6299 30.477 62.6299 26.2073C62.6299 21.9377 65.4086 18.4678 68.8183 18.4678C72.2347 18.4678 75.0067 21.9377 75.0067 26.2073C75.0067 30.477 72.228 33.9469 68.8183 33.9469ZM68.8183 20.6365C66.0597 20.6365 64.4891 22.7645 64.4891 26.2073C64.4891 29.6501 66.0597 31.7782 68.8183 31.7782C71.5769 31.7782 73.1475 29.6501 73.1475 26.2073C73.1475 22.7645 71.5702 20.6365 68.8183 20.6365Z" fill="white"/>
<path d="M44.749 54.0893C45.9706 54.3333 47.2593 54.1706 48.4809 53.7437C49.7025 53.3031 50.8569 52.5644 51.8771 51.6292C52.1389 51.3988 52.3403 51.1073 52.5551 50.8295L52.8705 50.4093L53.1658 49.9823C53.5686 49.4198 53.9176 48.837 54.28 48.2677C54.9915 47.1156 55.6627 45.9702 56.3742 44.8655C57.0789 43.7541 57.8307 42.7104 58.6227 41.7141C59.0455 41.2533 59.4348 40.745 59.8912 40.3316C60.1127 40.1215 60.3275 39.8911 60.5557 39.6878L61.2605 39.1117C63.16 37.5936 65.4286 36.8413 67.7442 36.7532L68.1805 36.7261L68.6235 36.7397L69.5095 36.7736C70.1001 36.8007 70.6841 36.8955 71.268 36.9565L72.1272 37.1327L72.5567 37.2209L72.9729 37.3496C73.2481 37.4377 73.5367 37.5123 73.8052 37.6139L74.6039 37.9596C75.6442 38.4746 76.604 39.1659 77.3759 40.0673C78.1478 40.9686 78.7385 42.0733 79.1009 43.2864C79.4701 44.4996 79.658 45.8076 79.7184 47.1291L79.7453 48.1186L79.7251 48.5659L79.6714 48.9996C79.6177 49.2775 79.5506 49.5554 79.4432 49.8061C79.3895 49.9281 79.3291 50.0569 79.262 50.1721C79.2016 50.2941 79.1412 50.4161 79.0673 50.5313C78.5707 51.5275 77.5773 52.2798 76.5034 52.7949C75.9597 53.0592 75.3892 53.2625 74.7985 53.4251C74.2146 53.5946 73.6105 53.7233 72.9997 53.7979C74.2213 53.9741 75.4832 53.9538 76.7383 53.6759C77.3692 53.5403 77.9934 53.3167 78.5975 52.9778C79.2016 52.6458 79.7922 52.1849 80.2688 51.5614C80.3896 51.4055 80.497 51.2429 80.5843 51.0531C80.6849 50.8769 80.7453 50.6804 80.8259 50.4906C80.9064 50.3008 80.9467 50.1043 81.0138 49.9078C81.0675 49.7112 81.1011 49.5147 81.1481 49.3114C81.1816 49.1148 81.2018 48.9115 81.2219 48.715L81.2487 48.1186L81.2219 47.0275C81.1481 45.5771 80.9467 44.1133 80.5171 42.6968C80.0943 41.2804 79.3895 39.9453 78.4566 38.8542C77.5236 37.763 76.3826 36.943 75.1811 36.3534L74.2683 35.9603C73.9595 35.8451 73.6508 35.7638 73.3353 35.6621L72.8722 35.5198L72.4024 35.4181L71.4627 35.2284C70.8318 35.1538 70.2008 35.0589 69.5699 35.0318L68.6235 34.9979L68.1537 34.9844L67.6704 35.0115C65.1132 35.0996 62.5022 35.9738 60.3879 37.6681L59.6026 38.3052C59.3476 38.5289 59.1126 38.7728 58.871 39.01C58.3676 39.4641 57.9515 40.0063 57.4951 40.5078C56.6426 41.5718 55.8506 42.6765 55.1257 43.8218C54.3941 44.9604 53.7095 46.1261 53.0182 47.2511C52.3201 48.3761 51.6154 49.4605 50.7965 50.3483C49.3467 52.3476 47.2123 53.8318 44.749 54.0893Z" fill="white"/>
<path d="M6.27539 26.2073C6.27539 21.9377 9.05415 18.4678 12.4638 18.4678C15.8802 18.4678 18.6523 21.9377 18.6523 26.2073C18.6523 30.477 15.8735 33.9469 12.4638 33.9469C9.04744 33.9469 6.27539 30.477 6.27539 26.2073ZM8.13461 26.2073C8.13461 29.6569 9.70521 31.7782 12.4638 31.7782C15.2225 31.7782 16.7931 29.6501 16.7931 26.2073C16.7931 22.7645 15.2225 20.6365 12.4638 20.6365C9.70521 20.6365 8.13461 22.7577 8.13461 26.2073Z" fill="white"/>
<path d="M36.5333 54.0886C35.3117 54.3326 34.023 54.1699 32.8014 53.743C31.5798 53.3025 30.4254 52.5638 29.4052 51.6285C29.1434 51.3981 28.942 51.1067 28.7273 50.8288L28.4118 50.4086L28.1165 49.9816C27.7137 49.4191 27.3647 48.8363 27.0023 48.267C26.2908 47.1149 25.6196 45.9695 24.9081 44.8648C24.2034 43.7534 23.4516 42.7097 22.6596 41.7135C22.2368 41.2526 21.8475 40.7443 21.3911 40.3309C21.1696 40.1208 20.9548 39.8904 20.7266 39.6871L20.0218 39.111C18.1223 37.5929 15.8537 36.8406 13.5381 36.7525L13.1018 36.7254L12.6588 36.739L11.7728 36.7729C11.1822 36.8 10.5982 36.8949 10.0143 36.9559L9.15513 37.1321L8.72557 37.2202L8.30942 37.3489C8.03423 37.437 7.74562 37.5116 7.47714 37.6132L6.67841 37.9589C5.63806 38.474 4.67825 39.1652 3.90637 40.0666C3.13449 40.968 2.54384 42.0726 2.18139 43.2858C1.81223 44.4989 1.6243 45.8069 1.56389 47.1284L1.53704 48.1179L1.55718 48.5652L1.61087 48.9989C1.66457 49.2768 1.73169 49.5547 1.83908 49.8054C1.89278 49.9274 1.95318 50.0562 2.0203 50.1714C2.08071 50.2934 2.14112 50.4154 2.21495 50.5306C2.71164 51.5268 3.70501 52.2791 4.77893 52.7942C5.3226 53.0585 5.89311 53.2618 6.48377 53.4245C7.06771 53.5939 7.67179 53.7227 8.28258 53.7972C7.061 53.9734 5.79915 53.9531 4.54401 53.6752C3.91308 53.5397 3.28887 53.316 2.68479 52.9772C2.08071 52.6451 1.49006 52.1842 1.01351 51.5607C0.892693 51.4049 0.785301 51.2422 0.698045 51.0524C0.597366 50.8762 0.536958 50.6797 0.456414 50.4899C0.375871 50.3002 0.335599 50.1036 0.268479 49.9071C0.214783 49.7105 0.181223 49.514 0.134239 49.3107C0.10068 49.1142 0.0805437 48.9108 0.0604078 48.7143L0 48.1518L0.0268479 47.0607C0.10068 45.6103 0.302039 44.1465 0.731605 42.73C1.15446 41.3136 1.85922 39.9785 2.79218 38.8874C3.72515 37.7962 4.86618 36.9762 6.06763 36.3866L6.98045 35.9935C7.2892 35.8783 7.59796 35.797 7.91342 35.6953L8.37654 35.553L8.84638 35.4513L9.78606 35.2616C10.417 35.187 11.0479 35.0921 11.6788 35.065L12.6252 35.0311L13.0951 35.0176L13.5783 35.0447C16.1356 35.1328 18.7465 36.0071 20.8608 37.7014L21.6461 38.3384C21.9012 38.5621 22.1361 38.806 22.3777 39.0432C22.8811 39.4973 23.2973 40.0395 23.7537 40.541C24.6061 41.605 25.3981 42.7097 26.123 43.855C26.8546 44.9936 27.5392 46.1593 28.2306 47.2843C28.9286 48.4093 29.6334 49.4937 30.4522 50.3815C31.9356 52.3469 34.07 53.8311 36.5333 54.0886Z" fill="white"/>
<path d="M73.4489 55.9998C69.9721 54.7664 66.69 52.7739 63.6763 50.2731C62.2601 48.8905 60.9512 47.3589 59.7632 45.7053C58.5416 44.0855 57.5348 42.2218 56.6086 40.3852C54.8836 36.8475 52.8969 33.425 50.259 30.9513C49.9369 30.6328 49.5811 30.3685 49.2455 30.077C48.8965 29.806 48.5341 29.5687 48.1783 29.3112C47.8025 29.1011 47.44 28.8639 47.0507 28.6809C46.6614 28.5115 46.2856 28.3014 45.8761 28.1794C44.2854 27.5898 42.5873 27.3526 40.869 27.3458C39.144 27.3526 37.4526 27.5898 35.8619 28.1794C35.4591 28.3014 35.0833 28.5183 34.6873 28.6809C34.3047 28.8707 33.9355 29.1079 33.5597 29.3112C33.2039 29.5687 32.8415 29.806 32.4924 30.077C32.1568 30.3685 31.8011 30.6328 31.4789 30.9513C28.8411 33.425 26.8544 36.8542 25.1294 40.3852C24.2099 42.2218 23.1964 44.0855 21.9748 45.7053C20.78 47.3589 19.4779 48.8973 18.055 50.2663C15.0413 52.7671 11.7592 54.7596 8.28906 56.0066C11.4101 53.8989 14.2694 51.371 16.726 48.4771C17.0281 48.1112 17.3838 47.8197 17.706 47.4673C18.0281 47.1285 18.3369 46.7761 18.6591 46.4304C19.2497 45.6917 19.8739 44.9869 20.4109 44.2007C20.6794 43.8076 20.9747 43.4349 21.2297 43.0283L21.9815 41.8084C22.2433 41.4085 22.4446 40.968 22.6728 40.5478C22.8943 40.1141 23.1158 39.7142 23.344 39.2466C25.1428 35.5733 27.2168 31.9272 30.1902 29.1215C30.5527 28.7623 30.9554 28.4573 31.338 28.132C31.734 27.8202 32.1568 27.5424 32.5663 27.2509C33.0026 27.007 33.4254 26.7359 33.8684 26.519C34.3181 26.3225 34.7611 26.0785 35.2242 25.9362C37.0633 25.2517 38.9896 24.9941 40.8623 24.9941C42.7349 25.0009 44.6613 25.2585 46.5003 25.9362C46.9702 26.0785 47.4065 26.3225 47.8562 26.519C48.2992 26.7359 48.722 27.007 49.1583 27.2509C49.5677 27.5424 49.9906 27.8202 50.3866 28.132C50.7692 28.4641 51.1719 28.769 51.5343 29.1215C54.5077 31.9272 56.5817 35.5733 58.3805 39.2466C58.6087 39.7142 58.8302 40.1141 59.0517 40.5478C59.2799 40.968 59.4813 41.4153 59.7431 41.8084L60.4948 43.0283C60.7499 43.4349 61.0385 43.8076 61.3137 44.2007C61.8439 44.9937 62.4748 45.6917 63.0655 46.4304L64.0186 47.4673C64.3341 47.813 64.6965 48.1044 64.9985 48.4704C67.482 51.3439 70.3346 53.8786 73.4489 55.9998Z" fill="#48AC35"/>
</g>
<defs>
<clipPath id="clip0">
<rect width="268.211" height="56" fill="white"/>
</clipPath>
</defs>
</svg>
