<svg width="20" height="14" viewBox="0 0 20 14" fill="none" xmlns="http://www.w3.org/2000/svg">
<path fill-rule="evenodd" clip-rule="evenodd" d="M3.14835 0.00415183H16.8281C17.6015 -0.0167394 18.358 0.248551 18.9696 0.755092L18.1901 1.2954L9.96253 6.95493L7.82105 5.46678C7.77694 5.42185 7.72436 5.38751 7.66686 5.36605L1.78209 1.29082L1.00687 0.755092C1.60938 0.230407 2.37223 -0.0371155 3.14835 0.00415183ZM0.467222 1.46024L1.19104 1.96392L6.84882 5.8972L1.24244 12.1245L0.634257 12.7976C0.211691 12.1667 -0.0104875 11.4076 0.000380532 10.6318L0.00466348 3.35591C-0.00138619 2.69128 0.158261 2.03696 0.467222 1.46024ZM18.1387 12.7427L12.4209 6.40546L10.2366 7.9165L10.1638 7.95313H10.1296C10.094 7.95793 10.058 7.95793 10.0225 7.95313C9.98694 7.95793 9.95096 7.95793 9.91541 7.95313H9.88115L9.77836 7.9165L7.61119 6.41462L1.86346 12.761L1.24672 13.4432C1.81239 13.8322 2.4763 14.0256 3.14835 13.9973H16.8538C17.5232 14.0019 18.1795 13.7982 18.7426 13.4112L18.1387 12.7427ZM19.9975 3.36965V10.6318C20.0262 11.406 19.8088 12.1678 19.3807 12.793L18.7683 12.1108L13.1662 5.87888L18.8197 1.96392L19.5478 1.46482C19.8609 2.04251 20.0166 2.70227 19.9975 3.36965Z" fill="white"/>
</svg>
