<svg width="25" height="22" viewBox="0 0 25 22" fill="none" xmlns="http://www.w3.org/2000/svg">
<path fill-rule="evenodd" clip-rule="evenodd" d="M6.44153 12.6896L0.929354 10.5571C0.369515 10.3396 0.364656 9.52032 0.922906 9.29716L23.5451 0.251407C24.0246 0.059138 24.5195 0.494673 24.4151 1.01671L20.3554 21.2581C20.2597 21.736 19.7191 21.9527 19.3375 21.6652L13.7957 17.4947C13.4591 17.2415 13.0003 17.255 12.6783 17.527L9.60568 20.1234C9.249 20.4257 8.71163 20.2573 8.57511 19.8018L6.44153 12.6896ZM19.0041 4.67694L8.23127 11.5544C7.81838 11.8185 7.62396 12.3353 7.75736 12.8193L8.92212 17.0615C9.00482 17.3621 9.4258 17.3313 9.46589 17.0207L9.76875 14.6943C9.82584 14.2563 10.0275 13.8528 10.3399 13.5512L19.2307 4.98491C19.3969 4.82504 19.1977 4.55368 19.0041 4.67694Z" fill="white"/>
<path d="M8.23142 11.5541L19.0043 4.67668C19.1979 4.55342 19.3971 4.82478 19.2308 4.98464L10.3401 13.551C10.0276 13.8525 9.82599 14.256 9.76889 14.694L9.46603 17.0204C9.42595 17.3311 9.00497 17.3619 8.92227 17.0613L7.7575 12.819C7.62411 12.3351 7.81852 11.8183 8.23142 11.5541Z" fill="#363A38"/>
</svg>
