<svg width="64" height="72" viewBox="0 0 64 72" fill="none" xmlns="http://www.w3.org/2000/svg">
<path d="M53.5409 43.7338C53.4481 43.7064 54.3572 43.8893 39.7893 41.0548V37.8199C43.3137 35.4435 45.1446 32.0625 45.511 28.353C47.2776 28.281 48.6921 26.8215 48.6921 25.0384C48.6915 23.1487 48.6926 22.5165 48.691 22.4517C51.6804 21.2662 51.1563 16.8739 47.9807 16.4235V15.3133C47.9807 6.86975 41.111 0 32.6669 0H31.371C22.9275 0 16.0577 6.86975 16.0577 15.3138V16.4235C12.8882 16.8734 12.3537 21.2651 15.3469 22.4517C15.3458 22.5165 15.3464 23.1493 15.3464 25.0384C15.3464 26.822 16.7609 28.281 18.5269 28.3535C18.8928 32.0548 20.7061 35.4315 24.2486 37.8199V41.0548C9.64996 43.8953 10.5904 43.7064 10.497 43.7338C3.77008 45.7141 0.5 49.377 0.5 54.9316V67.2281C0.5 69.8593 2.64069 72 5.27246 72H58.766C61.3972 72 63.5379 69.8593 63.5379 67.2281V54.9316C63.5379 49.377 60.2684 45.7141 53.5409 43.7338ZM61.4285 54.9316V57.9089H53.5035V45.9283C58.978 47.6697 61.4285 50.4635 61.4285 54.9316ZM38.9066 3.67932C39.4416 3.96771 39.9547 4.29126 40.4424 4.64777V6.37866C40.0403 6.48578 39.3092 6.48578 38.9066 6.37866V3.67932ZM31.2513 2.11047C31.3546 2.10938 32.6839 2.10938 32.7872 2.11047V9.61414C32.3845 9.72125 31.6534 9.72125 31.2513 9.61414V2.11047ZM23.596 4.64777C24.0838 4.29126 24.5963 3.96771 25.1313 3.67932V6.37866C24.7292 6.48578 23.9981 6.48578 23.596 6.37866V4.64777ZM21.4861 6.56927C21.5009 6.59619 21.2021 8.56824 24.364 8.56824C26.1388 8.56824 27.2413 7.87445 27.2413 6.75824V2.7713C27.856 2.56805 28.491 2.4093 29.1414 2.29834V9.99371C29.1414 11.3461 30.6729 11.8032 32.0192 11.8032C33.7941 11.8032 34.8965 11.1099 34.8965 9.99371V2.29834C35.5475 2.4093 36.1819 2.56805 36.7966 2.7713V6.75824C36.7966 7.87445 37.8991 8.56824 39.674 8.56824C42.8858 8.56824 42.5337 6.60223 42.5518 6.56927C46.4723 10.9962 45.7928 15.928 45.8702 16.3922H18.1677C18.2462 15.9225 17.5491 11.0143 21.4861 6.56927ZM20.5748 27.2785C20.5457 25.9178 18.8604 26.2936 18.6637 26.2463C17.9979 26.2463 17.4563 25.7042 17.4563 25.0384V22.6714H21.6448C23.0401 22.6714 23.0417 20.5615 21.6448 20.5615H16.501C15.1387 20.5615 15.1387 18.5021 16.501 18.5021H47.5374C48.9003 18.5021 48.8986 20.5615 47.5374 20.5615H25.8647C24.47 20.5615 24.4678 22.6714 25.8647 22.6714H46.5822V25.0384C46.5822 25.7042 46.0405 26.2463 45.3742 26.2463C45.1567 26.2985 43.4928 25.9222 43.4637 27.2785C43.3247 33.7577 37.8579 38.0462 32.0192 38.1165C26.1976 38.0462 20.7137 33.7736 20.5748 27.2785ZM37.6794 38.9993V41.9244C37.6794 45.0456 35.1404 47.5851 32.0192 47.5851C28.898 47.5851 26.3585 45.0456 26.3585 41.9244V38.9993C29.8472 40.5753 33.96 40.6796 37.6794 38.9993ZM19.2174 44.1826L24.3508 43.184C24.9545 46.8715 28.1636 49.6945 32.0192 49.6945C35.8749 49.6945 39.0834 46.8715 39.6871 43.184L44.821 44.1826V52.0785C44.821 52.9849 44.0839 53.722 43.1769 53.722H20.861C19.9551 53.722 19.2174 52.9849 19.2174 52.0785V44.1826ZM10.5349 45.9283V57.9089H2.60992V54.9316C2.60992 50.4635 5.05988 47.6697 10.5349 45.9283ZM5.27246 69.8901C3.80414 69.8901 2.60992 68.6959 2.60992 67.2281V60.0183H10.5349V69.8901H5.27246ZM44.1943 62.0244V63.8998H41.7844C40.3897 63.8998 40.3875 66.0097 41.7844 66.0097H44.1943V69.8901H19.8442V66.0092H37.5646C38.9593 66.0092 38.9615 63.8992 37.5646 63.8992H19.8442C19.8909 62.1716 19.7426 61.9047 19.9634 61.9047C45.5236 61.9612 44.1943 61.7882 44.1943 62.0244ZM51.3936 69.8901H46.3036V62.0239C46.3036 60.795 45.3039 59.7953 44.0745 59.7953H19.9634C18.734 59.7953 17.7343 60.795 17.7343 62.0239V69.8901H12.6448V45.4603L17.1075 44.593V52.0785C17.1075 54.1483 18.7911 55.832 20.861 55.832H43.1769C45.2468 55.832 46.9304 54.1483 46.9304 52.0785V44.593L51.3931 45.4603V69.8901H51.3936ZM58.766 69.8901H53.503V60.0183H61.428V67.2281C61.4285 68.6959 60.2338 69.8901 58.766 69.8901Z" fill="#3BAF2A"/>
</svg>
